<svg xmlns="http://www.w3.org/2000/svg" viewBox="0 0 220 132" width="220" height="132" role="img" aria-label="Realisterne"><g transform="translate(76.4,6) scale(1.4)"><circle cx="24" cy="24" r="23" fill="#0c1f3d" stroke="#c8a24b" stroke-width="1.5"/><g fill="#c8a24b"><ellipse cx="24" cy="16.2" rx="6" ry="4"/><rect x="16.8" y="18.1" width="14.4" height="3.4" rx="1.7"/><rect x="15.2" y="22.1" width="17.6" height="3.4" rx="1.7"/><rect x="13.8" y="26.1" width="20.4" height="3.4" rx="1.7"/><rect x="12.6" y="30.1" width="22.8" height="3.6" rx="1.8"/></g><path d="M21.7 33.7a2.3 2.3 0 0 1 4.6 0z" fill="#0c1f3d"/><g><ellipse cx="36.6" cy="13.6" rx="2.1" ry="1.4" fill="#e6c977"/><line x1="36.6" y1="12.2" x2="36.6" y2="15" stroke="#0c1f3d" stroke-width="0.6"/><ellipse cx="35.1" cy="12.5" rx="1.1" ry="0.7" fill="#ffffff" opacity="0.85"/><ellipse cx="38.1" cy="12.5" rx="1.1" ry="0.7" fill="#ffffff" opacity="0.85"/></g></g><text x="110" y="110" text-anchor="middle" font-family="Inter,Arial,sans-serif" font-size="23" font-weight="700" letter-spacing="3.5" fill="#0c1f3d">REALISTERNE</text><rect x="86" y="118" width="48" height="2.6" rx="1.3" fill="#c8a24b"/></svg>
